<?xml version='1.0' encoding='ASCII' standalone='yes'?>
<svg xmlns="http://www.w3.org/2000/svg" xmlns:xlink="http://www.w3.org/1999/xlink" version="1.1" width="1920.0px" viewBox="0 0 1920.0 1080.0" height="1080.0px">
  <g>
    <g>
      <defs/>
      <rect fill="#2D1540" height="1080px" width="1920px" x="0" y="0"/>
    </g>
    <g transform="translate(854.25, 495.0) scale(1 1)"><g>
    <g transform="translate(0, 0) scale(1.5 1.5)"><title>wom/logo/wom_secundario   </title>
    <defs>
        <path d="M49.0684255,8.97580175 C50.2046338,8.97580175 50.8030838,9.69482647 50.6986373,10.9873758 L50.6986373,10.9873758 L47.4466823,54.4749517 C47.3761104,55.6248262 46.6562766,56.3113606 45.4988967,56.4356713 L45.4988967,56.4356713 L36.3852363,57.5022011 C35.2165649,57.6406381 34.4402736,57.1278562 34.0591851,56.021773 L34.0591851,56.021773 L28.6999519,40.1015203 C28.4981161,39.4630151 27.9801181,39.5195199 27.9278948,40.2004039 L27.9278948,40.2004039 L26.1692421,56.9399775 C26.0337439,58.1110413 25.3887164,58.7834495 24.2214565,58.9218865 L24.2214565,58.9218865 L15.107796,59.9785279 C13.9363018,60.1141397 13.10073,59.6055957 12.778922,58.5037503 L12.778922,58.5037503 L0.133841569,16.8511708 C-0.281121444,15.4837524 0.283454084,14.6107519 1.62432096,14.4525382 L1.62432096,14.4525382 L9.31666254,13.5597609 C10.5022712,13.4411007 11.405592,13.9213922 11.6610624,15.0345386 L11.6610624,15.0345386 L18.3936256,42.2981479 C18.6011071,42.9479541 19.1064022,42.8900366 19.1727398,42.2020896 L19.1727398,42.2020896 L20.4529148,14.0132127 C20.5234868,12.8647508 21.2404977,12.1866921 22.3950547,12.0454299 L22.3950547,12.0454299 L27.9617694,11.3998615 C29.1262064,11.2614245 29.9674239,11.7657307 30.2835862,12.8760518 L30.2835862,12.8760518 L37.6639998,40.0619669 C37.8714813,40.7145984 38.3824222,40.6566809 38.4459369,39.9687338 L38.4459369,39.9687338 L39.0754386,11.850488 C39.0853187,10.706264 39.85173,10.0169043 41.0232242,9.87987999 L41.0232242,9.87987999 L48.7183887,8.98145224 L48.7212116,8.99557846 C48.8365286,8.98296519 48.9524232,8.97636404 49.0684255,8.97580175 Z M75.2237983,4.86083315 C87.6007053,4.86083315 87.5597736,15.4696262 87.2379655,19.6368618 L87.2379655,19.6368618 L85.9337961,36.5968045 C85.5908164,41.0945938 83.7630032,53.2120674 68.4347776,54.9947967 C53.106552,56.7775259 53.129135,44.8634699 53.4735261,40.3882826 L53.4735261,40.3882826 L54.7974557,23.405738 C55.1319667,18.9164245 56.9724829,6.8074266 72.2936513,5.03882355 L72.2936513,5.03882355 L72.2795369,5.03882355 C73.2567494,4.92319602 74.2397846,4.86376827 75.2237983,4.86083315 Z M126.240254,3.19744231e-13 C127.233907,3.19744231e-13 127.936804,0.511369253 128.216269,1.50020483 L128.216269,1.50020483 L140.862761,43.1386581 C141.283369,44.4976007 140.72444,45.367776 139.36099,45.5330528 L139.36099,45.5330528 L131.668648,46.4230049 C130.505623,46.5543787 129.593833,46.0599609 129.339774,44.9468146 L129.339774,44.9468146 L122.601565,17.6832053 C122.402552,17.033399 121.884554,17.0955544 121.828097,17.7736131 L121.828097,17.7736131 L120.547922,45.9653153 C120.484407,47.1166024 119.768807,47.7946611 118.60437,47.9359233 L118.60437,47.9359233 L113.043302,48.5814917 C111.877453,48.7241665 111.04047,48.209972 110.722896,47.1053014 L110.722896,47.1053014 L103.338248,19.9236242 C103.123709,19.2780558 102.619826,19.3387985 102.559134,20.0168572 L102.559134,20.0168572 L101.929632,48.1322778 C101.921164,49.2694387 101.144872,49.9686867 99.9818467,50.1057111 L99.9818467,50.1057111 L92.2895051,50.9999009 C90.9246437,51.1552894 90.1963413,50.4277889 90.3036107,49.0081036 L90.3036107,49.0081036 L93.5569771,5.52194036 C93.6317834,4.37206585 94.34456,3.68553144 95.5047627,3.54426921 L95.5047627,3.54426921 L104.628303,2.49186564 C105.787095,2.35201604 106.566209,2.87186103 106.95012,3.96523064 L106.95012,3.96523064 L112.305119,19.8967843 C112.506955,20.5352896 113.027776,20.4759595 113.078587,19.7979008 L113.078587,19.7979008 L114.83724,3.05832716 C114.972738,1.89715168 115.613532,1.21485513 116.785026,1.08065602 L116.785026,1.08065602 L125.895863,0.0183640892 L125.880338,0.0226019559 C126.004544,0.00706311123 126.124517,3.19744231e-13 126.240254,3.19744231e-13 Z M75.8533,24.5259474 C76.2555601,19.3006577 76.1835767,16.1519228 71.3931533,16.7070833 C66.60273,17.2622438 66.0353316,20.4872604 65.6288372,25.716788 L65.6288372,25.716788 L64.8765403,35.4808329 C64.4982747,40.312001 64.5392064,43.3689156 68.3119824,43.3689156 C68.6521609,43.3680458 68.9919832,43.3468186 69.3296298,43.3053476 C74.122876,42.7487744 74.6973316,39.5195199 75.0883002,34.3012934 L75.0883002,34.3012934 Z" id="path-1"/>
    </defs>
    <g id="wom/logo/wom_secundario---" stroke="none" stroke-width="1" fill="none" fill-rule="evenodd">
        <mask id="mask-2" fill="white">
            <use xlink:href="#path-1"/>
        </mask>
        <use id="Combined-Shape" fill="#FFFFFF" xlink:href="#path-1"/>
    </g>
</g>
  </g>
</g>
    <g transform="translate(180.0, -240.0) scale(1 1)"><g>
    <g transform="translate(0, 0) scale(13 13)" opacity="0.1"><title>wom/icon/wom_blanco         </title>
    <g id="wom/icon/wom_blanco---------" stroke="none" stroke-width="1" fill="none" fill-rule="evenodd">
        <path d="M60,15 C84.8528137,15 105,35.1471863 105,60 C105,84.8528137 84.8528137,105 60,105 C35.1471863,105 15,84.8528137 15,60 C15,35.1471863 35.1471863,15 60,15 Z M75.1192297,32.7423529 C75.0182709,32.7699267 74.9188075,32.8027055 74.8212425,32.8405564 L74.8155043,32.8289811 L68.318112,35.4039295 C67.3290218,35.7961501 66.8211159,36.5721502 67.0780413,37.5654483 L73.0547505,62.0651266 C73.1590501,62.6757755 72.7272356,62.8452426 72.3949741,62.328458 L59.6544534,40.5065858 C59.1212689,39.618782 58.2711647,39.3784379 57.2885523,39.770234 L52.5872997,41.6291882 C51.6139528,42.0211242 51.1464739,42.7758018 51.3514933,43.7869419 L56.7775697,68.499726 C56.8794093,69.1110341 56.4525148,69.2791828 56.120909,68.7648451 L43.9269219,46.724409 C43.4459711,45.8199866 42.5473205,45.6149423 41.5416688,45.9945539 L35.0454252,48.5639494 C33.913654,49.0140705 33.6242529,49.9019895 34.3032,50.9893903 L54.9887886,84.1112601 C55.5249261,84.990405 56.3710938,85.2357377 57.3605118,84.8447406 L65.0573246,81.8015444 C66.042397,81.4090891 66.4484579,80.6761137 66.2947727,79.630238 L63.9426534,64.7217564 C63.8301531,64.1198613 64.2684453,63.9499699 64.5925086,64.4558383 L72.9573137,76.9926802 C73.5460941,77.8616533 74.3415858,78.1244984 75.3278882,77.7317136 L83.0224062,74.6799533 C84.0021469,74.3020395 84.4701189,73.5393621 84.2647717,72.5269986 L77.0066817,34.1038819 C76.7977442,32.9600405 76.1093688,32.4770459 75.1192297,32.7423529 Z" id="Combined-Shape" fill="#FFFFFF"/>
    </g>
</g>
  </g>
</g>
  </g>
</svg>
